# xmcd
#
# Track frame offsets: 
#        187
#        15655
#        30007
#        44790
#        56222
#        74035
#        87257
#        102672
#        115392
#        134310
#
# Disc length: 2051 seconds
#
# Revision: 2
# Processed by: cddbd v1.4PL0 Copyright (c) Steve Scherf et al.
# Submitted via: ExactAudioCopy v0.90b4
#
DISCID=9008010a
DTITLE=Andy Childs - Self Titled
DYEAR=1900
DGENRE=
TTITLE0=Broken
TTITLE1=Exception to the Rule
TTITLE2=I Wouldn't Know
TTITLE3=Simple Life
TTITLE4=I'm Still Letting Go
TTITLE5=I'm Ready
TTITLE6=Holdin' Out For You
TTITLE7=Mine All Mine
TTITLE8=Let the Good Times Roll
TTITLE9=Your Love Amazes Me
EXTD=
EXTT0=
EXTT1=
EXTT2=
EXTT3=
EXTT4=
EXTT5=
EXTT6=
EXTT7=
EXTT8=
EXTT9=
PLAYORDER=
